<svg height="512" viewBox="0 0 38 60" width="512" xmlns="http://www.w3.org/2000/svg"><g id="Page-1" fill="none" fill-rule="evenodd"><g id="003---Elderly-Woman" fill="rgb(0,0,0)" fill-rule="nonzero" transform="translate(0 -1)"><path id="Shape" d="m.431 33.079c.76352198 1.7092095 2.42953979 2.8382271 4.3 2.914.26440066.0495992.46509563.2665447.494.534.67413103 3.923253 3.64740988 7.0528748 7.531 7.927.2164352.0432168.4171743.1441047.581.292.1456138.1552275.2998582.3021269.462.44-.1084116.2788342-.2339852.5506877-.376.814h-3.423c-4.96805005.006061-8.99393904 4.0319499-9 9v3c0 1.6568542 1.34314575 3 3 3h30c1.6568542 0 3-1.3431458 3-3v-3c-.006061-4.9680501-4.0319499-8.993939-9-9h-3.427c-.1420148-.2633123-.2675884-.5351658-.376-.814.1621418-.1378731.3163862-.2847725.462-.44.164077-.1480966.3651939-.2490006.582-.292 3.8834945-.8746222 6.8563823-4.0046427 7.53-7.928.0336838-.2795935.2535346-.5002693.533-.535 1.8583164-.0849387 3.5092822-1.2121632 4.265-2.912.7353916-1.6630335.5179503-3.5932551-.569-5.051v-5.028c-.012174-6.0174199-3.1939056-11.5832652-8.373-14.647-1.1831678-4.34210517-5.1265819-7.35476631-9.627-7.35476631s-8.4438322 3.01266114-9.627 7.35476631c-5.1795382 3.0632976-8.36142799 8.6294196-8.373 14.647v5.028c-1.08715332 1.4576647-1.3046074 3.3879996-.569 5.051zm2.569 24.921v-3c.00440864-3.8641657 3.13583434-6.9955914 7-7h3.023c.082 2.175.468 7.391 2.225 11h-5.248v-5c0-.5522847-.44771525-1-1-1s-1 .4477153-1 1v5h-4c-.55228475 0-1-.4477153-1-1zm12.333-6.4c2.4158683.5306691 4.9181317.5306691 7.334 0-.2229299 2.5913068-.9736559 5.1096078-2.206 7.4h-2.922c-1.2323441-2.2903922-1.9830701-4.8086932-2.206-7.4zm19.667 3.4v3c0 .5522847-.4477153 1-1 1h-4v-5c0-.5522847-.4477153-1-1-1s-1 .4477153-1 1v5h-5.248c1.757-3.609 2.143-8.825 2.225-11h3.023c3.8641657.0044086 6.9955914 3.1358343 7 7zm-12-7.758c-.007.372-.032 1.176-.113 2.232-2.5411956.7011043-5.2248044.7011043-7.766 0-.081-1.056-.106-1.86-.113-2.232.1891208-.3163374.3607129-.6428298.514-.978 2.2174975.9819115 4.7465025.9819115 6.964 0 .1532871.3351702.3248792.6616626.514.978zm12.73-14.937c-.4653707 1.0080251-1.4621443 1.6649191-2.572 1.695-1.1893207.0903858-2.1619494.98365-2.353 2.161-.5391882 3.1640127-2.9466506 5.6830819-6.083 6.365-.5828571.1352087-1.1144002.4355254-1.531.865-1.1210842 1.0823488-2.6336343 1.6630439-4.191 1.609-1.5579438.0529784-3.0705742-.5291912-4.191-1.613-.4161739-.4293055-.9474494-.7293199-1.53-.864-3.1348061-.6839961-5.54024063-3.2029954-6.079-6.366-.19564838-1.186906-1.18274821-2.0828762-2.383-2.163-1.09719182-.0374101-2.07919917-.6911785-2.537-1.689-.50562292-1.092679-.31897584-2.3807791.476-3.285.56732593-.6457857 1.38441289-1.0171889 2.244-1.02v2c0 2.209139 1.790861 4 4 4h5c2.209139 0 4-1.790861 4-4v-2h2v2c0 2.209139 1.790861 4 4 4h5c2.209139 0 4-1.790861 4-4v-2c.8603194.0014459 1.6786161.372174 2.247 1.018.7960904.9043242.9838964 2.1930887.479 3.287zm-13.73-5.298v-.007c0-.5522847.4477153-1 1-1h8v4c0 1.1045695-.8954305 2-2 2h-5c-1.1045695 0-2-.8954305-2-2zm9-3.007h-8c-1.2667854.0052514-2.3937454.8056491-2.816 2h-2.368c-.4222546-1.1943509-1.5492146-1.9947486-2.816-2h-8v-1.32c-.00473101-1.7725381.69997859-3.4732757 1.957-4.723 2.2677149-2.3072285 5.87269-2.6327217 8.517-.769.9250959.6150655 2.1289041.6150655 3.054 0l.1-.065c2.1743857-1.461443 5.0058924-1.5037803 7.223-.108 2.0005283 1.3083768 3.1895259 3.5519538 3.149 5.942zm-24 3v-1h8c.5522847 0 1 .4477153 1 1v3c0 1.1045695-.8954305 2-2 2h-5c-1.1045695 0-2-.8954305-2-2zm12-24c2.8846192.01622781 5.539936 1.57508189 6.96 4.086-1.9059048-.71489532-3.9244319-1.08270077-5.96-1.086h-2c-2.0355681.00329923-4.0540952.37110468-5.96 1.086 1.4199106-2.51106899 4.0753238-4.06997963 6.96-4.086zm-8.453 6.978c2.2698744-1.29667197 4.8388677-1.97847374 7.453-1.978h2c3.979305-.00345322 7.7966204 1.57579044 10.610415 4.389585 2.8137946 2.8137946 4.3930382 6.63111 4.389585 10.610415v3.422c-.6304943-.2768888-1.3113866-.4205571-2-.422v-3.043c.0383994-3.0836995-1.5100036-5.9709045-4.1-7.645-2.881223-1.8128273-6.5605673-1.7555826-9.384.146l-.095.063c-.2551018.1694133-.5868982.1694133-.842 0-2.6562356-1.8186433-6.1010123-2.0172544-8.9486624-.5159416-2.84765009 1.5013129-4.63009291 4.4557723-4.6303376 7.6749416v3.32c-.68874785.0011516-1.36976606.1451869-2 .423v-3.423c.00932586-5.3770459 2.88610983-10.3408038 7.547-13.022z"/></g></g></svg>